<svg id="Layer_1" data-name="Layer 1" xmlns="http://www.w3.org/2000/svg" viewBox="0 0 777.34 683.5"><defs><style>.cls-1{fill:#efd2d2;}.cls-2{fill:#514d4d;}</style></defs><path class="cls-1" d="M225.67,332.14c2.47,2.49,4.93,5,7.41,7.47a1.31,1.31,0,0,1,0,2.18c-2.49,2.41-4.94,4.86-7.41,7.29a2.07,2.07,0,0,1-.26-.67q0-7.65,0-15.3A3.75,3.75,0,0,1,225.67,332.14Z"/><path class="cls-2" d="M225.41,329.31q0-15.75,0-31.49c0-9.79,0-19.58,0-29.37s-.09-19.58,0-29.37c0-6.64-.17-13.32.52-19.9.77-7.42,4.28-13.76,9.67-19,6.84-6.69,15.09-9.62,24.53-9.61q18.17,0,36.33,0c10.19,0,20.38-.07,30.58-.07q17.79,0,35.57.07c6.91,0,13.82.09,20.73.08s13.89-.13,20.83-.15c8.48,0,17-.05,25.44,0a33.84,33.84,0,0,1,32.7,25.67c1.37,5.61,1,11.31,1,17,0,2.82.07,5.64.06,8.46,0,11.15,0,22.3,0,33.46q0,25.57.05,51.17,0,10,0,20,0,24.66,0,49.33c0,14.84.08,29.68,0,44.51,0,5.63.28,11.34-.54,16.87-2,13.56-9.79,22.66-22.74,27.25a32.52,32.52,0,0,1-10.86,1.7H387.72q-25.89,0-51.78.06c-16.1,0-32.19-.05-48.29-.06-9.33,0-18.67,0-28,.05A33.85,33.85,0,0,1,226,457.47c-.75-4.94-.45-9.84-.4-14.77,0-2.51-.14-5-.14-7.54,0-12,0-24,.05-36q0-19.61,0-39.21c0-3-.06-6.05-.05-9.08m23.88,6.71q0,47.68,0,95.38v1.85H439.42V221.64H249.36c0,.52-.06.86-.06,1.21v21.63q0,39.75,0,79.49m95,155.43a10.27,10.27,0,1,0-10.25-10.31A10.29,10.29,0,0,0,344.33,479.4Z"/></svg>