<svg id="Layer_1" data-name="Layer 1" xmlns="http://www.w3.org/2000/svg" xmlns:xlink="http://www.w3.org/1999/xlink" viewBox="0 0 777.34 683.5"><defs><style>.cls-1,.cls-3{fill:none;}.cls-2{clip-path:url(#clip-path);}.cls-3{stroke:#514d4d;stroke-miterlimit:10;stroke-width:16.48px;}.cls-4{clip-path:url(#clip-path-2);}.cls-5{fill:#514d4d;}.cls-6{clip-path:url(#clip-path-4);}.cls-7{clip-path:url(#clip-path-6);}</style><clipPath id="clip-path"><rect class="cls-1" x="93.09" y="203.64" width="577.91" height="272.82"/></clipPath><clipPath id="clip-path-2"><polygon class="cls-1" points="315.13 221.47 315.34 313.27 441.21 312.99 441 221.19 315.13 221.47"/></clipPath><clipPath id="clip-path-4"><polygon class="cls-1" points="662.44 203.64 512.6 203.98 512.86 313.27 662.7 312.93 662.44 203.64"/></clipPath><clipPath id="clip-path-6"><polygon class="cls-1" points="130.37 243.38 130.52 313.27 226.35 313.05 226.19 243.17 130.37 243.38"/></clipPath></defs><g class="cls-2"><path class="cls-3" d="M457.79,392.31a75.75,75.75,0,1,1-75.91-75.57A75.73,75.73,0,0,1,457.79,392.31Z"/></g><g class="cls-4"><path class="cls-5" d="M432.28,266c-6.76-8.78-13.37-17.45-20.12-26a4.85,4.85,0,0,0-3.35-1.63q-30.76-.07-61.52.13a4.2,4.2,0,0,0-2.93,1.32c-6.76,8.69-13.4,17.46-20.23,26.43,18.08,20,36.06,39.82,54.2,59.83L432.28,266m6.07.39-60,66.79L318,266.51c4.89-6.45,9.73-12.85,14.59-19.24,3-4,6-8,9.11-11.85a4.65,4.65,0,0,1,3.06-1.56q33.45-.21,66.91-.17a3.75,3.75,0,0,1,2.66,1.1c7.8,10.05,15.52,20.17,23.25,30.26.25.34.44.7.82,1.3"/><path class="cls-5" d="M356,269.51l44.47-.1c-7.34,15.95-14.59,31.71-22.11,48L356,269.51"/><path class="cls-5" d="M399.49,264.68l-42.6.09c4-6.93,7.78-13.58,11.69-20.17.31-.53,1.41-.79,2.15-.8,4.88-.08,9.76-.11,14.64,0a3.32,3.32,0,0,1,2.43.93c3.9,6.49,7.67,13.06,11.69,20"/><path class="cls-5" d="M330.45,265c5.27-7.07,10.16-13.65,15.09-20.19a2.33,2.33,0,0,1,1.54-.88c5.16-.08,10.31-.07,16.08-.07-4.07,7.06-7.84,13.62-11.66,20.15a2.1,2.1,0,0,1-1.47.91c-6.31.08-12.63.07-19.58.08"/><path class="cls-5" d="M393.12,243.7c5.55,0,10.53-.08,15.5,0a3.42,3.42,0,0,1,2.36,1.16c4.88,6.38,9.67,12.84,14.93,19.88-4.5,0-8.51-.45-12.36.13-6.3,1-9.92-1.46-12.44-7.13-2.08-4.69-5.06-9-8-14.05"/><path class="cls-5" d="M368.07,308.55,332.6,269.5c6.16,0,11.71-.07,17.26,0a2.31,2.31,0,0,1,1.51,1.27q8.61,18.83,17.11,37.68l-.41.09"/><path class="cls-5" d="M388.4,307.78q8.25-18.46,16.55-36.89a2.92,2.92,0,0,1,2-1.51c5.35-.14,10.71-.09,16.87-.11L388.77,308.2l-.37-.42"/></g><g class="cls-2"><path class="cls-3" d="M662.76,392.31a75.75,75.75,0,1,1-75.91-75.57A75.73,75.73,0,0,1,662.76,392.31Z"/></g><g class="cls-6"><path class="cls-5" d="M652.07,257c-8.05-10.46-15.92-20.78-24-31a5.8,5.8,0,0,0-4-1.94q-36.61-.09-73.24.16a5,5,0,0,0-3.49,1.57c-8,10.34-15.95,20.79-24.09,31.47l64.54,71.22c21.62-24.08,42.9-47.78,64.22-71.51m7.22.46c-23.73,26.42-47.44,52.81-71.42,79.52L516,257.61l17.36-22.91c3.59-4.72,7.12-9.5,10.87-14.1a5.35,5.35,0,0,1,3.63-1.86q39.82-.26,79.65-.21a4.5,4.5,0,0,1,3.17,1.31c9.29,12,18.47,24,27.68,36,.29.39.52.83,1,1.54"/><path class="cls-5" d="M561.21,261.18l52.95-.12c-8.75,19-17.39,37.74-26.33,57.15l-26.62-57"/><path class="cls-5" d="M613,255.42l-50.73.12c4.76-8.25,9.26-16.18,13.92-24a3.48,3.48,0,0,1,2.57-.94c5.8-.1,11.61-.13,17.41,0,1,0,2.47.4,2.9,1.11,4.65,7.71,9.13,15.53,13.93,23.77"/><path class="cls-5" d="M530.84,255.76c6.27-8.42,12.09-16.25,18-24a2.77,2.77,0,0,1,1.84-1.05c6.14-.09,12.27-.07,19.15-.09-4.86,8.41-9.34,16.23-13.9,24a2.43,2.43,0,0,1-1.74,1.08c-7.52.09-15,.09-23.31.1"/><path class="cls-5" d="M605.44,230.44c6.62,0,12.54-.09,18.46,0a4,4,0,0,1,2.81,1.37c5.82,7.6,11.51,15.29,17.77,23.67-5.36,0-10.12-.54-14.71.16-7.51,1.15-11.81-1.75-14.81-8.5-2.49-5.58-6-10.69-9.52-16.73"/><path class="cls-5" d="M575.63,307.66l-42.23-46.5c7.33,0,13.94-.08,20.55,0,.62,0,1.49.86,1.79,1.53q10.25,22.38,20.38,44.85l-.49.11"/><path class="cls-5" d="M599.83,306.73c6.55-14.65,13.08-29.31,19.71-43.92a3.41,3.41,0,0,1,2.4-1.79c6.38-.16,12.75-.11,20.08-.13l-41.75,46.34c-.15-.16-.29-.34-.44-.5"/></g><g class="cls-2"><path class="cls-3" d="M252.82,392.31a75.75,75.75,0,1,1-75.91-75.57A75.74,75.74,0,0,1,252.82,392.31Z"/></g><g class="cls-7"><path class="cls-5" d="M219.55,277.26c-5.15-6.7-10.18-13.29-15.32-19.8a3.66,3.66,0,0,0-2.55-1.25q-23.42-.06-46.84.1a3.26,3.26,0,0,0-2.23,1c-5.14,6.62-10.2,13.3-15.4,20.13L178.47,323c13.84-15.4,27.45-30.54,41.08-45.72m4.62.29L178.49,328.4l-46-50.73L143.61,263c2.29-3,4.56-6.08,6.94-9a3.47,3.47,0,0,1,2.34-1.19q25.47-.16,50.93-.13a2.87,2.87,0,0,1,2,.84c5.94,7.65,11.81,15.35,17.69,23,.19.25.34.53.63,1"/><path class="cls-5" d="M161.45,280l33.85-.08C189.71,292,184.19,304,178.46,316.43l-17-36.47"/><path class="cls-5" d="M194.59,276.28l-32.44.07c3-5.28,5.93-10.34,8.9-15.36a2.18,2.18,0,0,1,1.64-.6q5.56-.11,11.15,0a2.51,2.51,0,0,1,1.84.71c3,4.94,5.84,9.94,8.91,15.21"/><path class="cls-5" d="M142,276.49c4-5.38,7.74-10.39,11.5-15.37a1.75,1.75,0,0,1,1.16-.67c3.93-.06,7.85-.05,12.24-.06-3.09,5.38-6,10.37-8.87,15.35a1.63,1.63,0,0,1-1.12.69c-4.81.06-9.61.05-14.91.06"/><path class="cls-5" d="M189.73,260.3c4.23,0,8-.05,11.81,0a2.62,2.62,0,0,1,1.8.87c3.71,4.87,7.35,9.79,11.35,15.15-3.42,0-6.47-.35-9.41.1-4.79.72-7.54-1.12-9.46-5.44-1.59-3.57-3.86-6.83-6.09-10.7"/><path class="cls-5" d="M170.67,309.68l-27-29.74c4.69,0,8.92-.05,13.14,0,.39,0,.95.54,1.15,1q6.56,14.32,13,28.68l-.3.07"/><path class="cls-5" d="M186.14,309.09c4.19-9.37,8.37-18.75,12.61-28.09a2.17,2.17,0,0,1,1.53-1.14c4.08-.11,8.15-.07,12.84-.09l-26.69,29.64-.29-.32"/></g></svg>