<svg id="Layer_1" data-name="Layer 1" xmlns="http://www.w3.org/2000/svg" viewBox="0 0 999.84 1409.7"><defs><style>.cls-1{fill:#ead3d3;}.cls-2{fill:#504d4e;}</style></defs><path class="cls-1" d="M206.88,673.18c6.07,6.14,12.12,12.3,18.24,18.4,1.87,1.87,1.95,3.46,0,5.35-6.13,5.94-12.17,12-18.25,18a5.09,5.09,0,0,1-.63-1.65q0-18.84,0-37.67A10.11,10.11,0,0,1,206.88,673.18Z"/><path class="cls-2" d="M206.22,666.21q-.06-38.75,0-77.51c0-24.09.13-48.19.14-72.29s-.22-48.2-.08-72.3c.09-16.35-.43-32.8,1.27-49,1.91-18.25,10.53-33.85,23.82-46.84,16.84-16.45,37.13-23.67,60.37-23.65q44.71,0,89.43,0c25.09,0,50.19-.17,75.28-.16q43.79,0,87.58.18c17,0,34,.21,51,.18s34.18-.31,51.27-.36c20.87-.06,41.74-.12,62.61,0a83.36,83.36,0,0,1,80.51,63.19c3.38,13.82,2.43,27.86,2.37,41.86,0,6.94.15,13.88.15,20.82,0,27.45-.13,54.91-.12,82.36q0,63,.13,126,0,24.57,0,49.13-.06,60.74-.12,121.46c0,36.52.21,73,.11,109.56,0,13.85.69,27.91-1.32,41.52-4.94,33.37-24.11,55.79-56,67.09a79.77,79.77,0,0,1-26.73,4.17q-51.06,0-102.12,0-63.72.06-127.46.15c-39.62,0-79.24-.12-118.87-.14-23,0-46,.08-68.94.12-19.57,0-37.28-5.73-52.49-18-16.59-13.44-27.17-30.48-30.45-52-1.86-12.16-1.12-24.22-1-36.34.07-6.19-.35-12.38-.35-18.57,0-29.57.12-59.13.14-88.7q0-48.26,0-96.52c0-7.45-.14-14.9-.13-22.36M265,735.73q0,117.4,0,234.79v4.55h468V401.17H265.18c-.06,1.27-.14,2.12-.14,3q0,26.63,0,53.24,0,97.85,0,195.68M499,1035.7a25.28,25.28,0,1,0-25.21-25.39A25.33,25.33,0,0,0,499,1035.7Z"/></svg>