<svg xmlns="http://www.w3.org/2000/svg" viewBox="0 0 668.41 665.89"><defs><style>.cls-1{isolation:isolate;}.cls-2{fill:#b1c4ce;}.cls-12,.cls-13,.cls-14,.cls-15,.cls-2,.cls-8,.cls-9{mix-blend-mode:multiply;}.cls-3{fill:#c15f66;}.cls-4{fill:#e2d3cc;}.cls-12,.cls-5{fill:#6b91ad;}.cls-6{fill:#ee8384;}.cls-14,.cls-7{fill:#e5aeae;}.cls-8{fill:#eddfdc;}.cls-9{fill:#cddde5;}.cls-10,.cls-15{fill:#727fac;}.cls-11{fill:#ededeb;}.cls-13{fill:#ed7a7a;}</style></defs><g class="cls-1"><g id="Layer_1" data-name="Layer 1"><polyline class="cls-2" points="561.47 332.01 561.98 191.87 449.83 121.84 446.9 258.76"/><polygon class="cls-3" points="561.47 332.01 439.19 398.34 435.45 531.14 561.47 458.39 561.47 332.01"/><polygon class="cls-3" points="218.58 515.43 335.6 587.88 437.55 529.82 331.95 455.12 218.58 515.43"/><polygon class="cls-4" points="220.32 121.52 106.43 184.12 106.43 304.31 221.19 243.34 220.32 121.52"/><polygon class="cls-2" points="449.83 121.76 341.36 54.56 220.32 121.52 329.15 186 449.83 121.76"/><polygon class="cls-4" points="106.43 304.31 106.43 445.71 218.58 515.36 221.54 378.5 106.43 304.31"/><polygon class="cls-5" points="220.32 121.52 221.19 243.34 329.14 185.97 220.32 121.52"/><polygon class="cls-6" points="441.28 397.02 331.95 455.12 437.55 529.82 441.28 397.02"/><polygon class="cls-7" points="218.58 515.36 331.95 455.12 220.3 377.68 218.58 515.36"/><polygon class="cls-8" points="106.43 304.31 220.3 377.68 221.19 243.34 106.43 304.31"/><polygon class="cls-9" points="449.83 121.84 329.14 185.97 446.95 255.75 449.83 121.84"/><polygon class="cls-10" points="561.47 332.01 449.39 260.34 441.28 397.02 561.47 332.01"/><polygon class="cls-11" points="331.96 455.15 441.3 397.05 449.4 260.37 446.9 258.76 446.96 255.78 329.15 186 221.2 243.37 220.32 377.72 221.54 378.5 221.54 378.5 331.96 455.15"/><polygon class="cls-12" points="137.68 212.17 200.21 315.56 262.2 210.2 137.68 212.17"/><polygon class="cls-13" points="468.19 331.39 405.4 438.11 526.95 441.21 468.19 331.39"/><polygon class="cls-14" points="338.34 546.57 405.4 438.11 271.69 432.56 338.34 546.57"/><polygon class="cls-8" points="134.31 427.56 271.69 432.56 200.21 315.56 134.31 427.56"/><polygon class="cls-9" points="331.51 92.4 262.2 210.2 399.11 208.03 331.51 92.4"/><polygon class="cls-15" points="537.5 213.59 403.59 210.67 468.19 331.39 537.5 213.59"/></g></g></svg>