<svg id="Layer_1" data-name="Layer 1" xmlns="http://www.w3.org/2000/svg" viewBox="0 0 777.34 683.5"><defs><style>.cls-1,.cls-2{fill:#514d4d;}.cls-1{stroke:#514d4d;stroke-miterlimit:10;stroke-width:8.01px;}</style></defs><path class="cls-1" d="M208.65,189.87c-1,1.06-1.66,1.65-2.21,2.33q-9.66,11.91-19.29,23.85c-2.48,3-5.59,3.74-8.43,2-3.61-2.24-4.35-6.11-1.61-9.57,4.53-5.72,9.18-11.36,13.78-17q9.17-11.3,18.34-22.58c3.08-3.8,7.18-3.82,10.27-.06l32.67,39.69c2.15,2.61,2.41,5.52.72,7.85-2.54,3.5-7,3.61-9.85.14-5.18-6.32-10.28-12.7-15.41-19.06-1.55-1.91-3.12-3.8-4.63-5.74a10,10,0,0,1-.89-1.8l-.93.6c-.06.68-.17,1.35-.17,2q0,110.64,0,221.28c0,2.74.1,2.82,2.65,1.84a75.47,75.47,0,0,1,34.64-4.77,72.23,72.23,0,0,1,36.24,13.77c.93.68,1.9,1.29,3.27,2.22.08-1.4.16-2.23.16-3.06q0-18.93,0-37.87a28.37,28.37,0,0,1,.14-3.19,5.37,5.37,0,0,1,5.43-5.05c3.65-.12,7.31-.06,11-.06q11.16,0,22.33,0c5.12,0,7.09,1.93,7.1,7.11,0,13.82,0,27.64,0,41.46q0,37.79,0,75.56c0,1.89.56,2.63,2.49,2.59,4.45-.09,8.9,0,13.36,0,2.85,0,3-.17,3-3.08q0-50.84,0-101.67,0-28.41,0-56.82c0-5.46,1.94-7.4,7.44-7.4h34.7c5.37,0,7.47,2.11,7.47,7.49q0,78.85,0,157.69c0,3.79,0,3.8,3.81,3.8,4.39,0,8.77-.05,13.16,0,1.68,0,2.52-.56,2.37-2.31-.05-.53,0-1.06,0-1.6V295.68c0-5.27,1.9-7.21,7.19-7.22q17.54,0,35.09,0c5.37,0,7.25,1.94,7.25,7.36V500.75c0,3.55,0,3.56,3.48,3.56,4.72,0,9.44,0,14.16,0,1.69,0,2.5-.6,2.35-2.34-.06-.66,0-1.33,0-2V249c0-6.43,1.6-8,8-8q17.06,0,34.1,0c5.67,0,7.53,1.86,7.53,7.5V500.24c0,3.9,0,3.87,3.92,3.9,2.78,0,5.59,0,8.36.21a5.8,5.8,0,0,1,5,5,6,6,0,0,1-3.22,6.29,7.58,7.58,0,0,1-2.49.61c-1.12.1-2.26,0-3.39,0q-119.22,0-238.46,0a4.69,4.69,0,0,0-4.76,2.88c-9.59,17.67-23.88,29.91-43.11,35.89-36,11.2-73.25-5.37-89.24-39.59A71.91,71.91,0,0,1,178,471.08c3.55-19.37,13.24-34.95,29.2-46.54A3.9,3.9,0,0,0,208.9,421q0-114.33,0-228.66C208.88,191.74,208.77,191.12,208.65,189.87Zm41.83,356.39c34,0,61.72-27.84,61.78-62,.06-34.39-27.3-62.1-61.12-62.36S189,449.45,189,484.13C189,518.58,216.4,546.25,250.48,546.26ZM513.34,378.44V500.65c0,3.47,0,3.48,3.39,3.49h18.54c3.46,0,3.46,0,3.46-3.4v-244a6,6,0,0,0-.09-2.17c-.25-.59-1-1.39-1.49-1.4-7.37-.09-14.75,0-22.13-.06-1.19,0-1.65.66-1.66,1.76,0,.79,0,1.59,0,2.39Zm-69.45,24.12v97.68a5.32,5.32,0,0,0,.08,2.16c.33.69,1.11,1.64,1.71,1.65,7.24.11,14.48.08,21.73.07a1.62,1.62,0,0,0,1.81-1.87c0-.59,0-1.19,0-1.79V304.51c0-.67,0-1.33,0-2,0-1.21-.53-1.88-1.79-1.88-7.25,0-14.49,0-21.73,0a1.55,1.55,0,0,0-1.78,1.67c0,.73,0,1.46,0,2.19Zm-68.95,23.11v75.54c0,2.76.17,2.92,2.94,2.92h18.94c3.42,0,3.42,0,3.42-3.43q0-38.18,0-76.34,0-36.57,0-73.14c0-3.55,0-3.55-3.64-3.55H378.07c-3.12,0-3.13,0-3.13,3.06Zm-43,21.14V392.62c0-2.67-.22-2.89-2.78-2.9q-8.18,0-16.34,0c-2.49,0-2.71.23-2.71,2.77,0,15.14,0,30.28.05,45.42a6.34,6.34,0,0,0,1.09,3.49A73.34,73.34,0,0,1,325,481.29a66.62,66.62,0,0,1-2.2,20.12c-.61,2.33-.36,2.7,2.05,2.72,1.39,0,2.79,0,4.18,0,2.78,0,2.91-.13,2.91-2.92Z"/><path class="cls-1" d="M487.15,203c-1.61,1-3.25,2-4.84,3L365.67,281.25Q327.94,305.61,290.25,330c-2.64,1.72-5.13,2.37-8,.68-4.06-2.42-4.24-7.47-.26-10.13,5.14-3.43,10.35-6.74,15.53-10.08l76.3-49.28,99.54-64.3c2.22-1.43,4.43-2.87,7.16-4.65a17.93,17.93,0,0,0-2.76-.85c-9.43-1.11-18.87-2.16-28.3-3.27a27.59,27.59,0,0,1-4.88-.89,5.73,5.73,0,0,1-4-6.54c.62-3.1,3.19-5.45,6.13-5.18,6.68.61,13.35,1.4,20,2.16,10.49,1.19,21,2.43,31.47,3.62,3.67.42,6.3,2.57,6.54,5.83a12.32,12.32,0,0,1-.72,4.47q-6.55,20.58-13.23,41.13c-.71,2.21-1.36,4.44-2.12,6.64-1.17,3.41-4.63,5.35-7.67,4.37a6.27,6.27,0,0,1-4.08-8.26q5.11-15.5,10.29-31c.12-.36.17-.74.26-1.11Z"/><path class="cls-2" d="M293.73,477.27C279.41,493.14,265.11,509,250.65,525L207.49,477.2c3.51-4.62,7-9.19,10.48-13.76,2.16-2.84,4.29-5.71,6.55-8.47a3.3,3.3,0,0,1,2.19-1.12q24-.09,47.92,0a2.66,2.66,0,0,1,1.91.8c5.58,7.2,11.08,14.46,16.6,21.71C293.32,476.58,293.46,476.84,293.73,477.27Zm-4.35-.28c-4.83-6.3-9.55-12.52-14.36-18.67a3.49,3.49,0,0,0-2.4-1.17q-22-.11-44.07,0a3,3,0,0,0-2.1.93c-4.85,6.22-9.63,12.5-14.54,18.91l38.73,42.93Z"/><path class="cls-2" d="M234.71,479.41h31.86c-5.29,11.4-10.51,22.68-15.92,34.35C245.26,502.15,240,490.86,234.71,479.41Z"/><path class="cls-2" d="M265.9,476H235.38c2.87-4.95,5.6-9.71,8.41-14.43a2.09,2.09,0,0,1,1.54-.57q5.25-.08,10.48,0a2.33,2.33,0,0,1,1.74.67C260.34,466.34,263,471.05,265.9,476Z"/><path class="cls-2" d="M216.45,476.11c3.78-5.06,7.29-9.76,10.84-14.44a1.63,1.63,0,0,1,1.1-.63c3.7-.05,7.39,0,11.52,0-2.93,5.05-5.64,9.75-8.39,14.42a1.47,1.47,0,0,1-1.05.65C226,476.12,221.43,476.11,216.45,476.11Z"/><path class="cls-2" d="M261.37,461c4,0,7.54,0,11.1,0a2.46,2.46,0,0,1,1.69.84c3.49,4.58,6.9,9.21,10.66,14.26-3.22,0-6.09-.34-8.85.08-4.52.67-7.1-1.07-8.9-5.14C265.58,467.69,263.46,464.61,261.37,461Z"/><path class="cls-2" d="M243.32,507.39l-25.34-28c4.41,0,8.39,0,12.36,0,.37,0,.9.51,1.08.91q6.14,13.5,12.19,27Z"/><path class="cls-2" d="M257.88,506.87c4-8.81,7.91-17.62,11.92-26.4a2.08,2.08,0,0,1,1.45-1.07c3.83-.09,7.67,0,12.08,0l-25.18,27.82Z"/></svg>