<svg xmlns="http://www.w3.org/2000/svg" xmlns:xlink="http://www.w3.org/1999/xlink" viewBox="0 0 777.34 683.5"><defs><style>.cls-1{fill:none;}.cls-2{isolation:isolate;}.cls-3{clip-path:url(#clip-path);}.cls-4{fill:#b1c4ce;}.cls-10,.cls-11,.cls-14,.cls-15,.cls-16,.cls-17,.cls-4{mix-blend-mode:multiply;}.cls-5{fill:#c15f66;}.cls-6{fill:#e2d3cc;}.cls-14,.cls-7{fill:#6b91ad;}.cls-8{fill:#ee8384;}.cls-16,.cls-9{fill:#e5aeae;}.cls-10{fill:#eddfdc;}.cls-11{fill:#cddde5;}.cls-12,.cls-17{fill:#727fac;}.cls-13{fill:#ededeb;}.cls-15{fill:#ed7a7a;}</style><clipPath id="clip-path"><rect class="cls-1" x="236.79" y="177.15" width="303.77" height="276.83"/></clipPath></defs><g class="cls-2"><g id="Layer_1" data-name="Layer 1"><g class="cls-3"><polyline class="cls-4" points="457.56 454.59 458.06 314.45 345.92 244.42 342.98 381.34"/><polygon class="cls-5" points="457.56 454.59 335.27 520.92 331.54 653.72 457.56 580.97 457.56 454.59"/><polygon class="cls-5" points="114.67 638.02 231.69 710.46 333.63 652.4 228.04 577.7 114.67 638.02"/><polygon class="cls-6" points="116.41 244.1 2.52 306.7 2.52 426.89 117.27 365.92 116.41 244.1"/><polygon class="cls-4" points="345.92 244.34 237.45 177.15 116.41 244.1 225.24 308.58 345.92 244.34"/><polygon class="cls-6" points="2.52 426.89 2.52 568.29 114.67 637.94 117.63 501.09 2.52 426.89"/><polygon class="cls-7" points="116.41 244.1 117.27 365.92 225.23 308.55 116.41 244.1"/><polygon class="cls-8" points="337.37 519.6 228.04 577.7 333.63 652.4 337.37 519.6"/><polygon class="cls-9" points="114.67 637.94 228.04 577.7 116.39 500.26 114.67 637.94"/><polygon class="cls-10" points="2.52 426.89 116.39 500.26 117.27 365.92 2.52 426.89"/><polygon class="cls-11" points="345.92 244.42 225.23 308.55 343.04 378.33 345.92 244.42"/><polygon class="cls-12" points="457.56 454.59 345.47 382.92 337.37 519.6 457.56 454.59"/><polygon class="cls-13" points="228.05 577.73 337.38 519.63 345.49 382.95 342.98 381.34 343.05 378.36 225.24 308.58 117.29 365.95 116.4 500.3 117.63 501.09 117.63 501.09 228.05 577.73"/><polygon class="cls-14" points="33.76 334.75 96.3 438.14 158.29 332.78 33.76 334.75"/><polygon class="cls-15" points="364.27 453.97 301.49 560.69 423.04 563.79 364.27 453.97"/><polygon class="cls-16" points="234.43 669.15 301.49 560.69 167.78 555.14 234.43 669.15"/><polygon class="cls-10" points="30.4 550.14 167.78 555.14 96.3 438.14 30.4 550.14"/><polygon class="cls-11" points="227.6 214.98 158.29 332.78 295.2 330.61 227.6 214.98"/><polygon class="cls-17" points="433.58 336.18 299.68 333.25 364.27 453.97 433.58 336.18"/></g></g></g></svg>