<?xml version="1.0" encoding="utf-8"?>
<!-- Generator: Adobe Illustrator 23.0.3, SVG Export Plug-In . SVG Version: 6.00 Build 0)  -->
<svg version="1.1" id="Layer_1" xmlns="http://www.w3.org/2000/svg" xmlns:xlink="http://www.w3.org/1999/xlink" x="0px" y="0px"
	 viewBox="0 0 100 125" style="enable-background:new 0 0 100 125;" xml:space="preserve">
<path d="M7,50.2L7,50.2c0,0.1,0.1,0.2,0.2,0.2s0.1,0.1,0.2,0.1l0,0h85l0,0c0.3,0,0.5-0.2,0.5-0.5c0-0.2-0.1-0.3-0.2-0.4L81.4,35.9
	l0,0c-0.1-0.1-0.1-0.1-0.2-0.1l0,0l-31-11.3l0,0l0,0c0,0,0,0-0.1,0c0,0,0,0-0.1,0l0,0c0,0,0,0-0.1,0l0,0l0,0l0,0l-31,11.3l0,0
	c-0.1,0-0.1,0.1-0.2,0.1l0,0L7.1,49.7l0,0c0,0.1-0.1,0.1-0.1,0.2c0,0,0,0,0,0.1C7,50,7,50.1,7,50.2L7,50.2z M9.8,49.5l26.4-12.1
	l-7.7,12.1H9.8z M29.7,49.5l7.9-12.4l11.3,12.4H29.7z M38.6,36.8h22.7L50,49.3L38.6,36.8z M51.1,49.5l11.3-12.4l7.9,12.4H51.1z
	 M71.5,49.5l-7.7-12.1l26.4,12.1H71.5z M90.7,48.6L64.8,36.8h16L90.7,48.6z M78.2,35.8H62.7l-10.5-9.4L78.2,35.8z M50,25.7
	l11.2,10.1H38.8L50,25.7z M47.8,26.3l-10.5,9.4H21.8L47.8,26.3z M19.2,36.8h16L9.3,48.6L19.2,36.8z"/>
</svg>
